<?xml version="1.0" encoding="UTF-8" standalone="no"?>
<svg
   xmlns:dc="http://purl.org/dc/elements/1.1/"
   xmlns:cc="http://creativecommons.org/ns#"
   xmlns:rdf="http://www.w3.org/1999/02/22-rdf-syntax-ns#"
   xmlns:svg="http://www.w3.org/2000/svg"
   xmlns="http://www.w3.org/2000/svg"
   xmlns:sodipodi="http://sodipodi.sourceforge.net/DTD/sodipodi-0.dtd"
   xmlns:inkscape="http://www.inkscape.org/namespaces/inkscape"
   xml:space="preserve"
   viewBox="0 0 128 128"
   version="1.1"
   y="0px"
   x="0px"
   id="svg22"
   sodipodi:docname="Extension.svg"
   inkscape:version="0.92.4 (5da689c313, 2019-01-14)"><defs
     id="defs26"><linearGradient
       id="a"
       gradientTransform="matrix(24.083447,0,0,-24.083447,-34783.929,-264432.99)"
       gradientUnits="userSpaceOnUse"
       x1="1766.9399"
       x2="1943.97"
       y1="-11285.72"
       y2="-11462.75"><stop
         offset="0"
         stop-color="#212121"
         stop-opacity=".2"
         id="stop917" /><stop
         offset="1"
         stop-color="#212121"
         stop-opacity="0"
         id="stop919" /></linearGradient><radialGradient
       id="b"
       cx="1452.8"
       cy="-10980.17"
       gradientTransform="matrix(24.083447,0,0,-24.083447,-34783.929,-264432.99)"
       gradientUnits="userSpaceOnUse"
       r="680.38"><stop
         offset="0"
         stop-color="#fff"
         stop-opacity=".1"
         id="stop922" /><stop
         offset="1"
         stop-color="#fff"
         stop-opacity="0"
         id="stop924" /></radialGradient></defs><sodipodi:namedview
     pagecolor="#ffffff"
     bordercolor="#666666"
     borderopacity="1"
     objecttolerance="10"
     gridtolerance="10"
     guidetolerance="10"
     inkscape:pageopacity="0"
     inkscape:pageshadow="2"
     inkscape:window-width="1920"
     inkscape:window-height="1139"
     id="namedview24"
     showgrid="false"
     inkscape:zoom="3.6875"
     inkscape:cx="62.621149"
     inkscape:cy="61.258908"
     inkscape:window-x="0"
     inkscape:window-y="0"
     inkscape:window-maximized="1"
     inkscape:current-layer="svg22" /><metadata
     id="metadata2"><rdf:RDF><cc:Work
         rdf:about=""><dc:format>image/svg+xml</dc:format><dc:type
           rdf:resource="http://purl.org/dc/dcmitype/StillImage" /><dc:title /></cc:Work></rdf:RDF></metadata><rect
     height="128"
     width="128"
     y="0"
     x="0"
     fill="#4c7e3a"
     id="rect4" /><g
     fill="#fff"
     transform="matrix(1.3151 0 0 1.3151 -20.166 -20.166)"
     id="g8"><path
       d="m91.344 43.844-12.188-12.188c-1.445-1.445-4.336-2.656-6.406-2.656h-35c-2.07 0-3.75 1.68-3.75 3.75v62.5c0 2.0703 1.6797 3.75 3.75 3.75h52.5c2.07 0 3.75-1.68 3.75-3.75v-45c0-2.0703-1.2109-4.9609-2.6562-6.4062zm-17.344-9.532c0.66406 0.23438 1.3281 0.58594 1.6016 0.85938l12.226 12.227c0.274 0.274 0.625 0.938 0.86 1.602h-14.688zm15 59.688h-50v-60h30v16.25c0 2.07 1.68 3.75 3.75 3.75h16.25z"
       id="path6" /></g><g
     fill="#fff"
     transform="matrix(.14396 0 0 .14396 96.296 -.76103)"
     id="g12"><path
       stroke-width="4.3877"
       fill="#fff"
       d="m163.54 118.43h-70.204v-71.079c0-12.285-9.6529-21.061-21.938-21.061h-0.87753c-12.286 0-21.061 8.3366-21.061 21.061v71.08h-72.397c-12.285 0-24.132 9.6529-24.132 21.938v0.87753c0 12.285 11.847 20.622 24.132 20.622h68.009v71.08c0 12.285 11.408 21.061 24.132 21.061h0.87753c12.286 0 23.255-8.3366 23.255-21.061v-71.08h70.203c12.285 0 21.938-9.6529 21.938-21.938v-0.87753c0-12.285-9.6529-20.622-21.938-20.622z"
       id="path10" /></g><g
     transform="matrix(0.18176164,0,0,0.18176164,39.214074,56.597567)"
     id="g1520"
     style="stroke-width:48.16689682"><path
       style="fill:#e1e1e1;stroke-width:48.16689682"
       inkscape:connector-curvature="0"
       id="path927"
       d="M 272.73,37.23 V 216.91 A 18.58,18.58 0 0 1 254.16,235.5 H 18.65 A 18.58,18.58 0 0 1 0.06,216.94 V 37.23 Z" /><path
       style="fill:#c2c2c2;stroke-width:48.16689682"
       inkscape:connector-curvature="0"
       id="path929"
       d="m 18.65,0 h 235.5 a 18.58,18.58 0 0 1 18.58,18.56 V 37.23 H 0.07 V 18.59 A 18.58,18.58 0 0 1 18.64,0 Z" /><path
       style="fill:#ffffff;fill-opacity:0.2;stroke-width:48.16689682"
       inkscape:connector-curvature="0"
       id="path931"
       d="M 254.15,0 H 18.65 A 18.64,18.64 0 0 0 0.07,18.59 v 1.48 A 18.64,18.64 0 0 1 18.65,1.54 h 235.5 a 18.64,18.64 0 0 1 18.58,18.59 V 18.65 A 18.64,18.64 0 0 0 254.15,0 Z" /><path
       style="fill:#212121;fill-opacity:0.1;stroke-width:48.16689682"
       inkscape:connector-curvature="0"
       id="path933"
       d="m 0.07,37.23 h 272.66 v 1.48 H 0.07 Z" /><path
       style="fill:#4285f4;stroke-width:48.16689682"
       inkscape:connector-curvature="0"
       id="path935"
       d="m 136.3,92.96 a 99,99 0 0 0 -99,99 v 0.13 c 0,2.08 -0.12,4.64 0,6.2 h 43.25 a 54.87,54.87 0 0 1 0,-6.2 55.81,55.81 0 0 1 85.06,-47.45 l 31.12,-31.12 A 98.76,98.76 0 0 0 136.29,92.95 Z" /><path
       style="fill:#f44336;stroke-width:48.16689682"
       inkscape:connector-curvature="0"
       id="path937"
       d="m 196.73,113.46 -31.14,31.14 a 55.74,55.74 0 0 1 26.56,47.45 54.87,54.87 0 0 1 0,6.2 h 43.39 c 0.12,-1.48 0,-4.12 0,-6.2 a 99,99 0 0 0 -38.81,-78.59 z" /><circle
       style="fill:#eeeeee;stroke-width:48.16689682"
       id="circle939"
       r="6.1999998"
       cy="18.59"
       cx="24.85" /><circle
       style="fill:#eeeeee;stroke-width:48.16689682"
       id="circle941"
       r="6.1999998"
       cy="18.59"
       cx="49.650002" /><path
       style="fill:#212121;fill-opacity:0.1;stroke-width:48.16689682"
       inkscape:connector-curvature="0"
       id="path943"
       d="M 254.18,233.93 H 18.59 A 18.64,18.64 0 0 1 0,215.34 v 1.48 a 18.64,18.64 0 0 0 18.59,18.59 h 235.59 a 18.64,18.64 0 0 0 18.55,-18.59 v -1.48 a 18.64,18.64 0 0 1 -18.55,18.59 z" /><path
       style="fill:#9e9e9e;stroke-width:48.16689682"
       inkscape:connector-curvature="0"
       id="path945"
       d="m 197.01,117.23 a 3.05,3.05 0 0 0 0.59,-1.81 3.11,3.11 0 0 0 -3.1,-3.1 3,3 0 0 0 -1.91,0.68 l -67.56,52 a 18.58,18.58 0 1 0 27.24,24.33 L 197,117.23 Z" /><path
       style="opacity:0.2;fill:#ffffff;stroke-width:48.16689682"
       inkscape:connector-curvature="0"
       id="path947"
       d="m 125.03,166.57 67.56,-52 a 3.05,3.05 0 0 1 4.88,1.62 2.88,2.88 0 0 0 0.12,-0.74 3.11,3.11 0 0 0 -3.1,-3.1 3,3 0 0 0 -1.91,0.68 l -67.54,52 a 18.51,18.51 0 0 0 -7.24,14.71 v 0.83 a 18.57,18.57 0 0 1 7.23,-14 z" /><path
       style="opacity:0.2;fill:#212121;stroke-width:48.16689682"
       inkscape:connector-curvature="0"
       id="path949"
       d="m 197.01,117.23 -44.72,72.14 a 18.57,18.57 0 0 1 -34.43,-8.79 v 0.71 a 18.58,18.58 0 0 0 34.48,9.64 l 44.72,-72.14 a 3.05,3.05 0 0 0 0.59,-1.81 2.74,2.74 0 0 0 -0.12,-0.8 3.29,3.29 0 0 1 -0.52,1.05 z" /><path
       style="fill:url(#a);stroke-width:48.16689682"
       inkscape:connector-curvature="0"
       id="path951"
       transform="translate(-9.27,-27.77)"
       d="m 206.24,141.32 a 3.05,3.05 0 0 1 0,3.68 l -44.72,72.14 a 18.57,18.57 0 0 1 -27.94,4.45 l 41.62,41.62 h 88.19 A 18.58,18.58 0 0 0 282,244.65 V 217.1 Z" /><path
       style="fill:url(#b);stroke-width:48.16689682"
       inkscape:connector-curvature="0"
       id="path953"
       transform="translate(-9.27,-27.77)"
       d="M 282,46.36 A 18.58,18.58 0 0 0 263.43,27.77 H 27.92 A 18.58,18.58 0 0 0 9.34,46.35 v 198.3 a 18.58,18.58 0 0 0 18.57,18.59 H 263.42 A 18.58,18.58 0 0 0 282,244.69 Z" /></g></svg>